<?xml version="1.0" encoding="utf-8"?>
<!-- Generator: Adobe Illustrator 16.0.0, SVG Export Plug-In . SVG Version: 6.00 Build 0)  -->
<!DOCTYPE svg PUBLIC "-//W3C//DTD SVG 1.1//EN" "http://www.w3.org/Graphics/SVG/1.1/DTD/svg11.dtd">
<svg version="1.1" id="Layer_1" xmlns="http://www.w3.org/2000/svg" xmlns:xlink="http://www.w3.org/1999/xlink" x="0px" y="0px"
	 width="273.275px" height="269.828px" viewBox="0 0 273.275 269.828" enable-background="new 0 0 273.275 269.828"
	 xml:space="preserve">
<g>
	<path fill="none" stroke="#6ECCE6" stroke-width="12.6444" stroke-miterlimit="10" d="M232.956,130.147
		c0,54.326-44.045,98.39-98.39,98.39c-54.336,0-98.391-44.063-98.391-98.39c0-54.345,44.055-98.39,98.391-98.39
		C188.911,31.757,232.956,75.802,232.956,130.147z"/>
	<path fill="#6ECCE6" d="M234.417,147.586C232.437,91.839,186.75,47.208,130.511,47.208c-38.828,0-72.64,21.312-90.53,52.837
		C70.564,98.363,134.556,102.85,234.417,147.586z"/>
	<path fill="#6ECCE6" d="M232.418,124.536c-3.968-50.704-46.13-90.685-97.852-90.685c-36.704,0-68.662,20.14-85.573,49.945
		c2.46-0.134,5.228-0.211,8.148-0.24c-5.611,6.005-10.617,12.577-14.7,19.765c30.583-1.672,94.575,2.806,194.436,47.542
		C236.55,141.726,234.945,132.934,232.418,124.536z"/>
	<path fill="#6ECCE6" d="M229.026,126.525c-5.111-50.599-48.167-89.608-99.879-88.436c-36.695,0.835-68.182,21.686-84.42,51.856
		c2.46-0.183,5.228-0.317,8.138-0.413c-5.467,6.121-10.328,12.808-14.248,20.091c30.545-2.364,94.623,0.672,195.464,43.122
		C233.552,143.619,231.746,134.855,229.026,126.525z"/>
	<g>
		<path fill="#FFFFFF" d="M126.243,201.713c-8.688,0-13.376-10.741-14.407-17.961c-2.471-17.174-0.552-36.58,5.866-59.322
			c0.514-2.058,1.074-4.194,1.636-6.334c0.779-3.357,1.813-6.667,2.813-9.867c0.514-1.646,1.026-3.286,1.5-4.924
			c0.015-0.049,0.291-0.862,0.291-0.862c1.5-4.385,3.05-8.919,4.662-13.116c3.087-8.105,6.693-16.204,10.427-23.412
			c6.507-13.091,11.917-20.768,12.145-21.088c0.739-1.063,1.942-1.711,3.203-1.711c1.092,0,2.137,0.484,2.865,1.328
			c0.062,0.071,0.12,0.146,0.175,0.222c0.875,1.217,1.037,2.875,0.424,4.325c-0.068,0.154-3.985,8.894-8.504,22.357
			c-2.059,6.081-4.269,13.564-6.959,23.557c-0.246,0.895-0.46,1.826-0.673,2.75c-0.101,0.438-0.201,0.874-0.304,1.303l-0.027,0.135
			c-0.124,0.594-0.278,1.329-0.486,2.079l-0.513,2.157c-0.387,1.613-0.771,3.224-1.135,4.871c-0.284,1.668-0.601,3.335-0.918,5.006
			c-0.466,2.449-0.946,4.981-1.307,7.458c-3.446,28.147,1.23,54.356,2.203,59.323c0.443,2.295,0.472,4.969,0.081,7.538
			c-1.072,7.169-4.903,12.329-10.246,13.798C128.115,201.582,127.17,201.713,126.243,201.713z"/>
		<g>
			<path fill="#6ECCE6" d="M154.378,46.302c0.163,0,0.323,0.073,0.453,0.223c0.221,0.307,0.249,0.816,0.076,1.225
				c0,0-3.959,8.787-8.59,22.584c-2.325,6.87-4.67,15.033-7.015,23.743c-0.365,1.326-0.672,2.772-0.999,4.141
				c-0.135,0.639-0.288,1.403-0.5,2.157c-0.566,2.407-1.153,4.771-1.69,7.216c-0.712,4.189-1.634,8.378-2.249,12.616
				c-3.463,28.273,1.076,54.503,2.229,60.394c0.365,1.893,0.403,4.17,0.058,6.447c-0.739,4.938-3.258,9.916-7.941,11.203
				c-0.681,0.188-1.337,0.275-1.967,0.275c-6.653,0-10.473-9.758-11.254-15.227c-2.772-19.273,0.519-39.365,5.779-58.005
				c0.538-2.152,1.1-4.291,1.662-6.433c1.163-5.011,2.883-9.844,4.28-14.672c1.61-4.708,3.19-9.359,4.866-13.721
				c3.345-8.782,6.938-16.632,10.282-23.089c6.495-13.067,11.914-20.711,11.914-20.711
				C153.942,46.427,154.163,46.302,154.378,46.302 M154.378,39.93c-2.291,0-4.462,1.147-5.814,3.071
				c-0.365,0.517-5.844,8.34-12.387,21.496c-3.779,7.302-7.428,15.497-10.554,23.705c-1.627,4.234-3.187,8.797-4.695,13.209
				l-0.245,0.717c-0.033,0.096-0.063,0.193-0.092,0.291c-0.462,1.596-0.957,3.182-1.481,4.861c-1.008,3.228-2.05,6.564-2.864,10.05
				c-0.548,2.088-1.104,4.21-1.635,6.327c-6.521,23.14-8.46,42.948-5.928,60.552c1.188,8.313,6.846,20.689,17.561,20.689
				c1.212,0,2.441-0.169,3.655-0.502c6.596-1.814,11.288-7.946,12.555-16.404c0.447-2.948,0.412-5.926-0.104-8.598
				c-0.959-4.898-5.551-30.629-2.17-58.341c0.349-2.384,0.798-4.749,1.273-7.251c0.309-1.626,0.628-3.307,0.915-4.989
				c0.351-1.584,0.718-3.121,1.106-4.744c0.168-0.703,0.336-1.405,0.503-2.111c0.225-0.821,0.385-1.587,0.516-2.209l0.028-0.136
				c0.098-0.409,0.193-0.824,0.289-1.241c0.215-0.933,0.418-1.813,0.635-2.602c2.683-9.963,4.874-17.384,6.907-23.393
				c4.483-13.358,8.325-21.924,8.364-22.01c0.02-0.045,0.04-0.09,0.059-0.135c1.044-2.467,0.748-5.312-0.771-7.425
				c-0.11-0.153-0.227-0.302-0.351-0.445C158.32,40.817,156.397,39.93,154.378,39.93L154.378,39.93z"/>
		</g>
	</g>
	<g>
		<path fill="#FFFFFF" d="M80.173,165.781c-0.253,0-0.508-0.032-0.759-0.098c-0.103-0.027-0.199-0.057-0.29-0.088
			c-0.03,0.001-0.062,0.002-0.093,0.002c-0.167,0-0.43-0.022-0.594-0.05c-3.224-0.537-5.79-2.987-7.075-6.741
			c-7.742-14.546,1.513-47.826,1.913-49.244c0.017-0.058,0.034-0.115,0.054-0.172c0.247-1.006,0.505-2.002,0.763-3.001l0.346-1.34
			c0.545-2.352,1.275-4.687,1.981-6.945c0.374-1.195,0.746-2.384,1.089-3.575c0.014-0.047,0.174-0.519,0.174-0.519
			c1.081-3.166,2.2-6.44,3.365-9.486c2.199-5.761,4.708-11.391,7.457-16.731c4.653-9.356,8.533-14.854,8.696-15.084
			c0.645-0.941,1.73-1.527,2.877-1.527c0.981,0,1.921,0.429,2.578,1.178c0.04,0.046,0.079,0.093,0.116,0.141
			c0.83,1.069,1.004,2.601,0.445,3.902c-0.049,0.109-2.822,6.294-6.023,15.826c-1.469,4.343-3.039,9.656-4.944,16.726
			c-0.146,0.548-0.283,1.136-0.421,1.726c-0.033,0.143-0.066,0.285-0.101,0.428c-0.007,0.284-0.054,0.571-0.145,0.852
			c-0.096,0.297-0.168,0.595-0.242,0.892l-0.146,0.574L90.8,95.078c-0.262,1.088-0.523,2.176-0.77,3.28
			c-0.204,1.208-0.434,2.418-0.664,3.63c-0.324,1.711-0.66,3.48-0.907,5.196c-2.434,19.833,0.873,38.443,1.561,41.971
			c0.433,1.9,0.516,3.773,0.233,5.637c-0.864,5.227-4.136,9.236-8.228,10.351C81.492,165.56,80.838,165.781,80.173,165.781z"/>
		<g>
			<path fill="#6ECCE6" d="M100.077,54.186c0.116,0,0.229,0.051,0.321,0.156c0.164,0.211,0.183,0.586,0.059,0.875
				c0,0-2.816,6.246-6.111,16.056c-1.653,4.891-3.324,10.694-4.997,16.901c-0.25,0.942-0.471,1.96-0.711,2.94l0.087-0.077
				c-0.174,0.538-0.289,1.077-0.433,1.615c-0.403,1.71-0.826,3.401-1.211,5.131c-0.5,2.979-1.162,5.967-1.595,8.974
				c-2.47,20.12,0.769,38.784,1.585,42.974c0.327,1.441,0.462,2.959,0.212,4.612c-0.76,4.592-3.814,7.84-7.14,8.09l0.029,0.346
				c-0.221-0.058-0.375-0.191-0.576-0.27c-0.197,0-0.374,0.086-0.565,0.086c-0.032,0-0.064-0.003-0.098-0.008
				c-2.306-0.385-3.969-2.363-4.805-4.978c-7.484-13.49,2.037-47.23,2.037-47.23l0.01,0.019c0.374-1.546,0.778-3.065,1.172-4.602
				c0.826-3.565,2.057-6.995,3.047-10.435c1.143-3.344,2.267-6.649,3.458-9.762c2.384-6.246,4.948-11.818,7.322-16.431
				c4.621-9.291,8.475-14.72,8.475-14.72C99.768,54.274,99.926,54.186,100.077,54.186 M88.724,91.036h0.005 M100.077,48.178
				c-2.117,0-4.112,1.055-5.349,2.824c-0.364,0.518-4.277,6.136-8.913,15.452c-2.793,5.429-5.341,11.148-7.575,17.002
				c-1.184,3.093-2.312,6.394-3.401,9.585l-0.129,0.376c-0.031,0.093-0.062,0.186-0.088,0.28c-0.33,1.147-0.689,2.294-1.069,3.509
				c-0.716,2.289-1.456,4.655-2.04,7.156l-0.328,1.273c-0.252,0.973-0.504,1.944-0.744,2.924c-0.02,0.062-0.038,0.124-0.056,0.186
				c-1.032,3.656-9.753,35.834-1.784,51.262c1.668,4.639,5.126,7.799,9.346,8.503c0.233,0.038,0.471,0.064,0.71,0.078
				c0.501,0.131,1.01,0.195,1.517,0.195c1.113,0,2.211-0.311,3.165-0.902c4.963-1.6,8.854-6.411,9.872-12.561
				c0.005-0.027,0.009-0.055,0.013-0.082c0.334-2.209,0.246-4.414-0.271-6.74c-0.705-3.642-3.865-21.675-1.511-40.95
				c0.236-1.629,0.547-3.268,0.876-5.002c0.224-1.175,0.453-2.389,0.661-3.611c0.237-1.062,0.49-2.109,0.742-3.156
				c0.134-0.557,0.268-1.113,0.399-1.671c0.047-0.177,0.091-0.354,0.135-0.531c0.053-0.212,0.104-0.415,0.149-0.574
				c0.162-0.469,0.269-0.964,0.311-1.478c0.013-0.055,0.025-0.109,0.038-0.163c0.131-0.56,0.261-1.119,0.402-1.65
				c1.883-6.986,3.436-12.242,4.881-16.518c3.149-9.376,5.871-15.452,5.898-15.512c0.014-0.031,0.028-0.064,0.042-0.096
				c0.999-2.325,0.68-4.98-0.832-6.929c-0.074-0.096-0.151-0.189-0.231-0.281C103.685,48.98,101.923,48.178,100.077,48.178
				L100.077,48.178z"/>
		</g>
	</g>
	<g>
		<path fill="#FFFFFF" d="M174.969,181.924c-0.243,0-0.487-0.03-0.729-0.09c-0.133-0.033-0.258-0.072-0.372-0.114
			c-0.017,0-0.033,0.001-0.051,0.001c-0.166,0-0.43-0.022-0.594-0.05c-3.197-0.507-5.771-2.95-7.074-6.719
			c-7.735-14.562,1.512-47.83,1.912-49.247c0.022-0.08,0.048-0.158,0.076-0.235c0.322-1.348,0.672-2.671,1.022-3.999l0.079-0.301
			c0.533-2.306,1.254-4.621,1.951-6.86c0.379-1.216,0.756-2.425,1.101-3.633c0.015-0.051,0.031-0.102,0.048-0.152l0.469-1.363
			c1.017-2.966,1.978-5.767,3.025-8.506c2.163-5.668,4.672-11.297,7.455-16.727c4.665-9.35,8.532-14.854,8.694-15.083
			c0.648-0.945,1.732-1.53,2.876-1.53c1.004,0,1.958,0.446,2.618,1.225c0.939,1.154,1.114,2.737,0.486,4.08
			c-0.008,0.019-2.772,6.206-5.984,15.75c-1.451,4.285-3.021,9.594-4.944,16.716c-0.121,0.458-0.234,0.95-0.35,1.445
			c-0.053,0.229-0.106,0.458-0.16,0.685c-0.005,0.29-0.052,0.583-0.145,0.869c-0.082,0.257-0.147,0.518-0.214,0.776
			c-0.059,0.23-0.118,0.458-0.183,0.684l-0.42,1.762c-0.255,1.056-0.508,2.109-0.747,3.18c-0.208,1.236-0.441,2.473-0.675,3.711
			c-0.318,1.69-0.648,3.438-0.897,5.134c-2.436,19.911,0.881,38.446,1.57,41.959c0.437,1.89,0.52,3.762,0.232,5.627
			c-0.866,5.202-4.13,9.212-8.208,10.35C176.303,181.696,175.642,181.924,174.969,181.924z"/>
		<g>
			<path fill="#6ECCE6" d="M194.859,70.32c0.118,0,0.234,0.054,0.327,0.164c0.172,0.211,0.191,0.577,0.057,0.865
				c0,0-2.806,6.246-6.11,16.065c-1.653,4.881-3.324,10.694-4.997,16.892c-0.25,0.941-0.461,1.97-0.711,2.94l0.097-0.077
				c-0.173,0.538-0.289,1.086-0.442,1.614c-0.404,1.72-0.826,3.401-1.211,5.13c-0.5,2.989-1.153,5.977-1.595,8.984
				c-2.46,20.106,0.769,38.765,1.595,42.973c0.327,1.422,0.462,2.959,0.211,4.594c-0.769,4.611-3.823,7.84-7.148,8.109l0.039,0.346
				c-0.23-0.059-0.385-0.211-0.577-0.288c-0.197,0-0.381,0.085-0.574,0.085c-0.032,0-0.064-0.003-0.098-0.008
				c-2.306-0.365-3.959-2.346-4.805-4.959c-7.475-13.51,2.037-47.229,2.037-47.229l0.02,0.019c0.364-1.557,0.769-3.075,1.172-4.603
				c0.826-3.564,2.057-7.004,3.036-10.435c1.153-3.354,2.268-6.659,3.459-9.772c2.383-6.246,4.958-11.818,7.322-16.43
				c4.631-9.282,8.475-14.72,8.475-14.72C194.554,70.408,194.709,70.32,194.859,70.32 M183.521,107.169h0.005 M194.86,64.313
				c-2.115,0-4.107,1.052-5.343,2.819c-0.302,0.429-4.23,6.07-8.917,15.459c-2.827,5.517-5.375,11.236-7.573,16.999
				c-1.065,2.783-2.08,5.741-3.062,8.601l-0.466,1.358c-0.034,0.101-0.066,0.202-0.096,0.304c-0.332,1.162-0.695,2.329-1.08,3.564
				c-0.705,2.264-1.434,4.603-2.011,7.072l-0.058,0.219c-0.335,1.267-0.68,2.572-1.003,3.915c-0.029,0.088-0.057,0.177-0.081,0.267
				c-1.031,3.655-9.747,35.827-1.78,51.267c1.687,4.658,5.157,7.811,9.379,8.484c0.195,0.031,0.394,0.054,0.592,0.067
				c0.05,0.014,0.1,0.026,0.15,0.04c0.482,0.119,0.971,0.179,1.457,0.179c1.129,0,2.24-0.319,3.201-0.925
				c4.939-1.627,8.814-6.434,9.834-12.551c0.004-0.024,0.008-0.049,0.012-0.074c0.336-2.185,0.244-4.454-0.271-6.748
				c-0.708-3.635-3.873-21.582-1.519-40.93c0.238-1.612,0.544-3.23,0.867-4.942c0.227-1.201,0.46-2.44,0.671-3.689
				c0.23-1.029,0.475-2.041,0.719-3.056c0.138-0.571,0.275-1.143,0.411-1.718c0.063-0.226,0.122-0.453,0.181-0.682
				c0.04-0.157,0.079-0.314,0.124-0.472c0.166-0.479,0.273-0.984,0.313-1.509c0.033-0.139,0.065-0.278,0.098-0.417
				c0.107-0.464,0.214-0.926,0.33-1.365c1.899-7.036,3.452-12.289,4.881-16.506c3.083-9.161,5.74-15.171,5.895-15.518
				c1.074-2.365,0.736-5.154-0.869-7.129c-0.025-0.032-0.052-0.064-0.078-0.095C198.537,65.146,196.748,64.313,194.86,64.313
				L194.86,64.313z"/>
		</g>
	</g>
</g>
</svg>
